M48
; DRILL file {KiCad (5.1.9)-1} date 01/06/21 02:37:46
; FORMAT={-:-/ absolute / metric / decimal}
; #@! TF.CreationDate,2021-01-06T02:37:46+01:00
; #@! TF.GenerationSoftware,Kicad,Pcbnew,(5.1.9)-1
FMAT,2
METRIC
T1C0.400
T2C0.760
T3C1.000
T4C3.200
%
G90
G05
T1
X135.572Y-79.819
X143.701Y-78.9
X143.726Y-92.863
X145.034Y-92.837
X145.987Y-89.599
X145.987Y-98.171
X146.367Y-78.93
X146.368Y-83.82
X146.875Y-92.583
X147.002Y-90.487
X147.511Y-98.171
X147.955Y-92.583
X148.082Y-83.82
X151.447Y-85.788
X151.447Y-91.313
X153.035Y-81.597
X153.035Y-67.882
X153.099Y-102.171
X153.099Y-91.313
X154.559Y-78.676
X154.559Y-112.966
X154.568Y-95.821
X161.1Y-88.075
X161.1Y-91.186
X163.957Y-81.471
X163.957Y-115.76
X163.957Y-98.615
X168.084Y-67.882
X168.084Y-85.026
X168.084Y-102.235
X169.545Y-67.882
X169.545Y-85.026
X169.545Y-102.235
T2
X137.986Y-69.787
X137.986Y-72.326
X137.986Y-74.867
X137.986Y-77.406
X137.986Y-86.931
X137.986Y-89.471
X137.986Y-92.011
X137.986Y-94.551
X137.986Y-104.076
X137.986Y-106.617
X137.986Y-109.156
X137.986Y-111.697
X140.525Y-71.056
X140.525Y-73.596
X140.525Y-76.136
X140.525Y-78.676
X140.525Y-88.201
X140.525Y-90.742
X140.525Y-93.281
X140.525Y-95.822
X140.525Y-105.346
X140.525Y-107.886
X140.525Y-110.426
X140.525Y-112.966
T3
X144.399Y-108.267
X146.939Y-108.267
T4
X131.636Y-68.516
X131.636Y-79.947
X131.636Y-85.661
X131.636Y-97.091
X131.636Y-102.806
X131.636Y-114.236
T0
M30
