%TF.GenerationSoftware,KiCad,Pcbnew,(5.1.9)-1*%
%TF.CreationDate,2021-01-06T02:37:49+01:00*%
%TF.ProjectId,SerialBT-Flarm-2.0,53657269-616c-4425-942d-466c61726d2d,2.0*%
%TF.SameCoordinates,Original*%
%TF.FileFunction,Legend,Top*%
%TF.FilePolarity,Positive*%
%FSLAX46Y46*%
G04 Gerber Fmt 4.6, Leading zero omitted, Abs format (unit mm)*
G04 Created by KiCad (PCBNEW (5.1.9)-1) date 2021-01-06 02:37:49*
%MOMM*%
%LPD*%
G01*
G04 APERTURE LIST*
%ADD10C,1.500000*%
%ADD11C,0.120000*%
%ADD12C,0.200000*%
%ADD13C,0.127000*%
%ADD14C,0.150000*%
%ADD15C,0.100000*%
G04 APERTURE END LIST*
D10*
X148007500Y-113340000D02*
G75*
G03*
X148007500Y-113340000I-2350000J0D01*
G01*
X148007500Y-69340000D02*
G75*
G03*
X148007500Y-69340000I-2350000J0D01*
G01*
D11*
%TO.C,J1*%
X148269000Y-106937500D02*
X148269000Y-108267500D01*
X146939000Y-106937500D02*
X148269000Y-106937500D01*
X145669000Y-106937500D02*
X145669000Y-109597500D01*
X145669000Y-109597500D02*
X143069000Y-109597500D01*
X145669000Y-106937500D02*
X143069000Y-106937500D01*
X143069000Y-106937500D02*
X143069000Y-109597500D01*
D12*
%TO.C,U3*%
X169668000Y-65779000D02*
G75*
G03*
X169668000Y-65779000I-100000J0D01*
G01*
D13*
X176518000Y-79779000D02*
X170381500Y-79779000D01*
X176518000Y-66779000D02*
X176518000Y-79779000D01*
X170381500Y-66779000D02*
X176518000Y-66779000D01*
X149818000Y-79779000D02*
X150754500Y-79779000D01*
X149818000Y-79342500D02*
X149818000Y-79779000D01*
X149818000Y-66779000D02*
X149818000Y-67215500D01*
X150754500Y-66779000D02*
X149818000Y-66779000D01*
D12*
%TO.C,U5*%
X169668000Y-100069000D02*
G75*
G03*
X169668000Y-100069000I-100000J0D01*
G01*
D13*
X176518000Y-114069000D02*
X170381500Y-114069000D01*
X176518000Y-101069000D02*
X176518000Y-114069000D01*
X170381500Y-101069000D02*
X176518000Y-101069000D01*
X149818000Y-114069000D02*
X150754500Y-114069000D01*
X149818000Y-113632500D02*
X149818000Y-114069000D01*
X149818000Y-101069000D02*
X149818000Y-101505500D01*
X150754500Y-101069000D02*
X149818000Y-101069000D01*
D12*
%TO.C,U4*%
X169668000Y-82924000D02*
G75*
G03*
X169668000Y-82924000I-100000J0D01*
G01*
D13*
X176518000Y-96924000D02*
X170381500Y-96924000D01*
X176518000Y-83924000D02*
X176518000Y-96924000D01*
X170381500Y-83924000D02*
X176518000Y-83924000D01*
X149818000Y-96924000D02*
X150754500Y-96924000D01*
X149818000Y-96487500D02*
X149818000Y-96924000D01*
X149818000Y-83924000D02*
X149818000Y-84360500D01*
X150754500Y-83924000D02*
X149818000Y-83924000D01*
D11*
%TO.C,R10*%
X165624742Y-80948000D02*
X166099258Y-80948000D01*
X165624742Y-81993000D02*
X166099258Y-81993000D01*
%TO.C,R9*%
X156955258Y-81993000D02*
X156480742Y-81993000D01*
X156955258Y-80948000D02*
X156480742Y-80948000D01*
%TO.C,D4*%
X168173500Y-82205500D02*
X170458500Y-82205500D01*
X170458500Y-82205500D02*
X170458500Y-80735500D01*
X170458500Y-80735500D02*
X168173500Y-80735500D01*
%TO.C,J4*%
X137485500Y-100076500D02*
X137985500Y-100576500D01*
X138485500Y-100076500D02*
X137485500Y-100076500D01*
X137985500Y-100576500D02*
X138485500Y-100076500D01*
X123905500Y-100761500D02*
X123905500Y-116281500D01*
X141865500Y-116281500D02*
X123905500Y-116281500D01*
X141865500Y-116281500D02*
X141865500Y-100761500D01*
X141865500Y-100761500D02*
X123905500Y-100761500D01*
%TO.C,U2*%
X148086500Y-91122500D02*
X148086500Y-88922500D01*
X148086500Y-91122500D02*
X148086500Y-93322500D01*
X142616500Y-91122500D02*
X142616500Y-88922500D01*
X142616500Y-91122500D02*
X142616500Y-94722500D01*
%TO.C,U1*%
X143043000Y-78030500D02*
X143043000Y-79830500D01*
X146263000Y-79830500D02*
X146263000Y-77380500D01*
%TO.C,R8*%
X166099258Y-116283000D02*
X165624742Y-116283000D01*
X166099258Y-115238000D02*
X165624742Y-115238000D01*
%TO.C,R7*%
X156955258Y-116219500D02*
X156480742Y-116219500D01*
X156955258Y-115174500D02*
X156480742Y-115174500D01*
%TO.C,R6*%
X165624742Y-98093000D02*
X166099258Y-98093000D01*
X165624742Y-99138000D02*
X166099258Y-99138000D01*
%TO.C,R5*%
X156955258Y-99138000D02*
X156480742Y-99138000D01*
X156955258Y-98093000D02*
X156480742Y-98093000D01*
%TO.C,R4*%
X147906000Y-85487742D02*
X147906000Y-85962258D01*
X146861000Y-85487742D02*
X146861000Y-85962258D01*
%TO.C,R3*%
X146191500Y-85487742D02*
X146191500Y-85962258D01*
X145146500Y-85487742D02*
X145146500Y-85962258D01*
%TO.C,R2*%
X147652000Y-77105242D02*
X147652000Y-77579758D01*
X146607000Y-77105242D02*
X146607000Y-77579758D01*
%TO.C,R1*%
X147652000Y-74057742D02*
X147652000Y-74532258D01*
X146607000Y-74057742D02*
X146607000Y-74532258D01*
%TO.C,Q1*%
X144264000Y-73785500D02*
X143064000Y-73785500D01*
X143064000Y-73785500D02*
X143064000Y-73785500D01*
X144064000Y-75185500D02*
X143464000Y-75185500D01*
%TO.C,J3*%
X141865500Y-83616500D02*
X123905500Y-83616500D01*
X141865500Y-99136500D02*
X141865500Y-83616500D01*
X141865500Y-99136500D02*
X123905500Y-99136500D01*
X123905500Y-83616500D02*
X123905500Y-99136500D01*
X137985500Y-83431500D02*
X138485500Y-82931500D01*
X138485500Y-82931500D02*
X137485500Y-82931500D01*
X137485500Y-82931500D02*
X137985500Y-83431500D01*
%TO.C,J2*%
X141865500Y-66471500D02*
X123905500Y-66471500D01*
X141865500Y-81991500D02*
X141865500Y-66471500D01*
X141865500Y-81991500D02*
X123905500Y-81991500D01*
X123905500Y-66471500D02*
X123905500Y-81991500D01*
X137985500Y-66286500D02*
X138485500Y-65786500D01*
X138485500Y-65786500D02*
X137485500Y-65786500D01*
X137485500Y-65786500D02*
X137985500Y-66286500D01*
%TO.C,D3*%
X168173500Y-116495500D02*
X170458500Y-116495500D01*
X170458500Y-116495500D02*
X170458500Y-115025500D01*
X170458500Y-115025500D02*
X168173500Y-115025500D01*
%TO.C,D2*%
X168173500Y-99350500D02*
X170458500Y-99350500D01*
X170458500Y-99350500D02*
X170458500Y-97880500D01*
X170458500Y-97880500D02*
X168173500Y-97880500D01*
%TO.C,D1*%
X145005500Y-75318000D02*
X146205500Y-75318000D01*
X145005500Y-73468000D02*
X145005500Y-75318000D01*
X146205500Y-73468000D02*
X146205500Y-75318000D01*
%TO.C,C7*%
X145099500Y-96379420D02*
X145099500Y-96660580D01*
X144079500Y-96379420D02*
X144079500Y-96660580D01*
%TO.C,C6*%
X143639000Y-96379420D02*
X143639000Y-96660580D01*
X142619000Y-96379420D02*
X142619000Y-96660580D01*
%TO.C,C5*%
X142555500Y-85865580D02*
X142555500Y-85584420D01*
X143575500Y-85865580D02*
X143575500Y-85584420D01*
%TO.C,C4*%
X148020500Y-96379420D02*
X148020500Y-96660580D01*
X147000500Y-96379420D02*
X147000500Y-96660580D01*
%TO.C,C3*%
X146560000Y-96379420D02*
X146560000Y-96660580D01*
X145540000Y-96379420D02*
X145540000Y-96660580D01*
%TO.C,C2*%
X145111080Y-82171000D02*
X144829920Y-82171000D01*
X145111080Y-81151000D02*
X144829920Y-81151000D01*
%TO.C,C1*%
X144984080Y-76710000D02*
X144702920Y-76710000D01*
X144984080Y-75690000D02*
X144702920Y-75690000D01*
%TO.C,J1*%
D14*
X147875666Y-109497880D02*
X147875666Y-110212166D01*
X147828047Y-110355023D01*
X147732809Y-110450261D01*
X147589952Y-110497880D01*
X147494714Y-110497880D01*
X148875666Y-110497880D02*
X148304238Y-110497880D01*
X148589952Y-110497880D02*
X148589952Y-109497880D01*
X148494714Y-109640738D01*
X148399476Y-109735976D01*
X148304238Y-109783595D01*
%TO.C,U3*%
X175133095Y-80732380D02*
X175133095Y-81541904D01*
X175180714Y-81637142D01*
X175228333Y-81684761D01*
X175323571Y-81732380D01*
X175514047Y-81732380D01*
X175609285Y-81684761D01*
X175656904Y-81637142D01*
X175704523Y-81541904D01*
X175704523Y-80732380D01*
X176085476Y-80732380D02*
X176704523Y-80732380D01*
X176371190Y-81113333D01*
X176514047Y-81113333D01*
X176609285Y-81160952D01*
X176656904Y-81208571D01*
X176704523Y-81303809D01*
X176704523Y-81541904D01*
X176656904Y-81637142D01*
X176609285Y-81684761D01*
X176514047Y-81732380D01*
X176228333Y-81732380D01*
X176133095Y-81684761D01*
X176085476Y-81637142D01*
%TO.C,U5*%
X175069595Y-115085880D02*
X175069595Y-115895404D01*
X175117214Y-115990642D01*
X175164833Y-116038261D01*
X175260071Y-116085880D01*
X175450547Y-116085880D01*
X175545785Y-116038261D01*
X175593404Y-115990642D01*
X175641023Y-115895404D01*
X175641023Y-115085880D01*
X176593404Y-115085880D02*
X176117214Y-115085880D01*
X176069595Y-115562071D01*
X176117214Y-115514452D01*
X176212452Y-115466833D01*
X176450547Y-115466833D01*
X176545785Y-115514452D01*
X176593404Y-115562071D01*
X176641023Y-115657309D01*
X176641023Y-115895404D01*
X176593404Y-115990642D01*
X176545785Y-116038261D01*
X176450547Y-116085880D01*
X176212452Y-116085880D01*
X176117214Y-116038261D01*
X176069595Y-115990642D01*
%TO.C,U4*%
X175069595Y-97940880D02*
X175069595Y-98750404D01*
X175117214Y-98845642D01*
X175164833Y-98893261D01*
X175260071Y-98940880D01*
X175450547Y-98940880D01*
X175545785Y-98893261D01*
X175593404Y-98845642D01*
X175641023Y-98750404D01*
X175641023Y-97940880D01*
X176545785Y-98274214D02*
X176545785Y-98940880D01*
X176307690Y-97893261D02*
X176069595Y-98607547D01*
X176688642Y-98607547D01*
%TO.C,R10*%
D15*
X161983000Y-81787166D02*
X161749666Y-81453833D01*
X161583000Y-81787166D02*
X161583000Y-81087166D01*
X161849666Y-81087166D01*
X161916333Y-81120500D01*
X161949666Y-81153833D01*
X161983000Y-81220500D01*
X161983000Y-81320500D01*
X161949666Y-81387166D01*
X161916333Y-81420500D01*
X161849666Y-81453833D01*
X161583000Y-81453833D01*
X162649666Y-81787166D02*
X162249666Y-81787166D01*
X162449666Y-81787166D02*
X162449666Y-81087166D01*
X162383000Y-81187166D01*
X162316333Y-81253833D01*
X162249666Y-81287166D01*
X163083000Y-81087166D02*
X163149666Y-81087166D01*
X163216333Y-81120500D01*
X163249666Y-81153833D01*
X163283000Y-81220500D01*
X163316333Y-81353833D01*
X163316333Y-81520500D01*
X163283000Y-81653833D01*
X163249666Y-81720500D01*
X163216333Y-81753833D01*
X163149666Y-81787166D01*
X163083000Y-81787166D01*
X163016333Y-81753833D01*
X162983000Y-81720500D01*
X162949666Y-81653833D01*
X162916333Y-81520500D01*
X162916333Y-81353833D01*
X162949666Y-81220500D01*
X162983000Y-81153833D01*
X163016333Y-81120500D01*
X163083000Y-81087166D01*
%TO.C,R9*%
X158887333Y-81787166D02*
X158654000Y-81453833D01*
X158487333Y-81787166D02*
X158487333Y-81087166D01*
X158754000Y-81087166D01*
X158820666Y-81120500D01*
X158854000Y-81153833D01*
X158887333Y-81220500D01*
X158887333Y-81320500D01*
X158854000Y-81387166D01*
X158820666Y-81420500D01*
X158754000Y-81453833D01*
X158487333Y-81453833D01*
X159220666Y-81787166D02*
X159354000Y-81787166D01*
X159420666Y-81753833D01*
X159454000Y-81720500D01*
X159520666Y-81620500D01*
X159554000Y-81487166D01*
X159554000Y-81220500D01*
X159520666Y-81153833D01*
X159487333Y-81120500D01*
X159420666Y-81087166D01*
X159287333Y-81087166D01*
X159220666Y-81120500D01*
X159187333Y-81153833D01*
X159154000Y-81220500D01*
X159154000Y-81387166D01*
X159187333Y-81453833D01*
X159220666Y-81487166D01*
X159287333Y-81520500D01*
X159420666Y-81520500D01*
X159487333Y-81487166D01*
X159520666Y-81453833D01*
X159554000Y-81387166D01*
%TO.C,D4*%
X170933333Y-81787166D02*
X170933333Y-81087166D01*
X171100000Y-81087166D01*
X171200000Y-81120500D01*
X171266666Y-81187166D01*
X171300000Y-81253833D01*
X171333333Y-81387166D01*
X171333333Y-81487166D01*
X171300000Y-81620500D01*
X171266666Y-81687166D01*
X171200000Y-81753833D01*
X171100000Y-81787166D01*
X170933333Y-81787166D01*
X171933333Y-81320500D02*
X171933333Y-81787166D01*
X171766666Y-81053833D02*
X171600000Y-81553833D01*
X172033333Y-81553833D01*
%TO.C,J4*%
X140205666Y-102531833D02*
X140705666Y-102531833D01*
X140805666Y-102565166D01*
X140872333Y-102631833D01*
X140905666Y-102731833D01*
X140905666Y-102798500D01*
X140439000Y-101898500D02*
X140905666Y-101898500D01*
X140172333Y-102065166D02*
X140672333Y-102231833D01*
X140672333Y-101798500D01*
%TO.C,U2*%
X148270166Y-91655833D02*
X148836833Y-91655833D01*
X148903500Y-91622500D01*
X148936833Y-91589166D01*
X148970166Y-91522500D01*
X148970166Y-91389166D01*
X148936833Y-91322500D01*
X148903500Y-91289166D01*
X148836833Y-91255833D01*
X148270166Y-91255833D01*
X148336833Y-90955833D02*
X148303500Y-90922500D01*
X148270166Y-90855833D01*
X148270166Y-90689166D01*
X148303500Y-90622500D01*
X148336833Y-90589166D01*
X148403500Y-90555833D01*
X148470166Y-90555833D01*
X148570166Y-90589166D01*
X148970166Y-90989166D01*
X148970166Y-90555833D01*
%TO.C,U1*%
X146619166Y-80670333D02*
X147185833Y-80670333D01*
X147252500Y-80637000D01*
X147285833Y-80603666D01*
X147319166Y-80537000D01*
X147319166Y-80403666D01*
X147285833Y-80337000D01*
X147252500Y-80303666D01*
X147185833Y-80270333D01*
X146619166Y-80270333D01*
X147319166Y-79570333D02*
X147319166Y-79970333D01*
X147319166Y-79770333D02*
X146619166Y-79770333D01*
X146719166Y-79837000D01*
X146785833Y-79903666D01*
X146819166Y-79970333D01*
%TO.C,R8*%
X162633833Y-116077166D02*
X162400500Y-115743833D01*
X162233833Y-116077166D02*
X162233833Y-115377166D01*
X162500500Y-115377166D01*
X162567166Y-115410500D01*
X162600500Y-115443833D01*
X162633833Y-115510500D01*
X162633833Y-115610500D01*
X162600500Y-115677166D01*
X162567166Y-115710500D01*
X162500500Y-115743833D01*
X162233833Y-115743833D01*
X163033833Y-115677166D02*
X162967166Y-115643833D01*
X162933833Y-115610500D01*
X162900500Y-115543833D01*
X162900500Y-115510500D01*
X162933833Y-115443833D01*
X162967166Y-115410500D01*
X163033833Y-115377166D01*
X163167166Y-115377166D01*
X163233833Y-115410500D01*
X163267166Y-115443833D01*
X163300500Y-115510500D01*
X163300500Y-115543833D01*
X163267166Y-115610500D01*
X163233833Y-115643833D01*
X163167166Y-115677166D01*
X163033833Y-115677166D01*
X162967166Y-115710500D01*
X162933833Y-115743833D01*
X162900500Y-115810500D01*
X162900500Y-115943833D01*
X162933833Y-116010500D01*
X162967166Y-116043833D01*
X163033833Y-116077166D01*
X163167166Y-116077166D01*
X163233833Y-116043833D01*
X163267166Y-116010500D01*
X163300500Y-115943833D01*
X163300500Y-115810500D01*
X163267166Y-115743833D01*
X163233833Y-115710500D01*
X163167166Y-115677166D01*
%TO.C,R7*%
X158887333Y-116013666D02*
X158654000Y-115680333D01*
X158487333Y-116013666D02*
X158487333Y-115313666D01*
X158754000Y-115313666D01*
X158820666Y-115347000D01*
X158854000Y-115380333D01*
X158887333Y-115447000D01*
X158887333Y-115547000D01*
X158854000Y-115613666D01*
X158820666Y-115647000D01*
X158754000Y-115680333D01*
X158487333Y-115680333D01*
X159120666Y-115313666D02*
X159587333Y-115313666D01*
X159287333Y-116013666D01*
%TO.C,R6*%
X162697333Y-98932166D02*
X162464000Y-98598833D01*
X162297333Y-98932166D02*
X162297333Y-98232166D01*
X162564000Y-98232166D01*
X162630666Y-98265500D01*
X162664000Y-98298833D01*
X162697333Y-98365500D01*
X162697333Y-98465500D01*
X162664000Y-98532166D01*
X162630666Y-98565500D01*
X162564000Y-98598833D01*
X162297333Y-98598833D01*
X163297333Y-98232166D02*
X163164000Y-98232166D01*
X163097333Y-98265500D01*
X163064000Y-98298833D01*
X162997333Y-98398833D01*
X162964000Y-98532166D01*
X162964000Y-98798833D01*
X162997333Y-98865500D01*
X163030666Y-98898833D01*
X163097333Y-98932166D01*
X163230666Y-98932166D01*
X163297333Y-98898833D01*
X163330666Y-98865500D01*
X163364000Y-98798833D01*
X163364000Y-98632166D01*
X163330666Y-98565500D01*
X163297333Y-98532166D01*
X163230666Y-98498833D01*
X163097333Y-98498833D01*
X163030666Y-98532166D01*
X162997333Y-98565500D01*
X162964000Y-98632166D01*
%TO.C,R5*%
X158823833Y-98932166D02*
X158590500Y-98598833D01*
X158423833Y-98932166D02*
X158423833Y-98232166D01*
X158690500Y-98232166D01*
X158757166Y-98265500D01*
X158790500Y-98298833D01*
X158823833Y-98365500D01*
X158823833Y-98465500D01*
X158790500Y-98532166D01*
X158757166Y-98565500D01*
X158690500Y-98598833D01*
X158423833Y-98598833D01*
X159457166Y-98232166D02*
X159123833Y-98232166D01*
X159090500Y-98565500D01*
X159123833Y-98532166D01*
X159190500Y-98498833D01*
X159357166Y-98498833D01*
X159423833Y-98532166D01*
X159457166Y-98565500D01*
X159490500Y-98632166D01*
X159490500Y-98798833D01*
X159457166Y-98865500D01*
X159423833Y-98898833D01*
X159357166Y-98932166D01*
X159190500Y-98932166D01*
X159123833Y-98898833D01*
X159090500Y-98865500D01*
%TO.C,R4*%
X147573166Y-83555666D02*
X147239833Y-83789000D01*
X147573166Y-83955666D02*
X146873166Y-83955666D01*
X146873166Y-83689000D01*
X146906500Y-83622333D01*
X146939833Y-83589000D01*
X147006500Y-83555666D01*
X147106500Y-83555666D01*
X147173166Y-83589000D01*
X147206500Y-83622333D01*
X147239833Y-83689000D01*
X147239833Y-83955666D01*
X147106500Y-82955666D02*
X147573166Y-82955666D01*
X146839833Y-83122333D02*
X147339833Y-83289000D01*
X147339833Y-82855666D01*
%TO.C,R3*%
X145795166Y-83555666D02*
X145461833Y-83789000D01*
X145795166Y-83955666D02*
X145095166Y-83955666D01*
X145095166Y-83689000D01*
X145128500Y-83622333D01*
X145161833Y-83589000D01*
X145228500Y-83555666D01*
X145328500Y-83555666D01*
X145395166Y-83589000D01*
X145428500Y-83622333D01*
X145461833Y-83689000D01*
X145461833Y-83955666D01*
X145095166Y-83322333D02*
X145095166Y-82889000D01*
X145361833Y-83122333D01*
X145361833Y-83022333D01*
X145395166Y-82955666D01*
X145428500Y-82922333D01*
X145495166Y-82889000D01*
X145661833Y-82889000D01*
X145728500Y-82922333D01*
X145761833Y-82955666D01*
X145795166Y-83022333D01*
X145795166Y-83222333D01*
X145761833Y-83289000D01*
X145728500Y-83322333D01*
%TO.C,R2*%
X148652666Y-77459166D02*
X148319333Y-77692500D01*
X148652666Y-77859166D02*
X147952666Y-77859166D01*
X147952666Y-77592500D01*
X147986000Y-77525833D01*
X148019333Y-77492500D01*
X148086000Y-77459166D01*
X148186000Y-77459166D01*
X148252666Y-77492500D01*
X148286000Y-77525833D01*
X148319333Y-77592500D01*
X148319333Y-77859166D01*
X148019333Y-77192500D02*
X147986000Y-77159166D01*
X147952666Y-77092500D01*
X147952666Y-76925833D01*
X147986000Y-76859166D01*
X148019333Y-76825833D01*
X148086000Y-76792500D01*
X148152666Y-76792500D01*
X148252666Y-76825833D01*
X148652666Y-77225833D01*
X148652666Y-76792500D01*
%TO.C,R1*%
X148652666Y-74411666D02*
X148319333Y-74645000D01*
X148652666Y-74811666D02*
X147952666Y-74811666D01*
X147952666Y-74545000D01*
X147986000Y-74478333D01*
X148019333Y-74445000D01*
X148086000Y-74411666D01*
X148186000Y-74411666D01*
X148252666Y-74445000D01*
X148286000Y-74478333D01*
X148319333Y-74545000D01*
X148319333Y-74811666D01*
X148652666Y-73745000D02*
X148652666Y-74145000D01*
X148652666Y-73945000D02*
X147952666Y-73945000D01*
X148052666Y-74011666D01*
X148119333Y-74078333D01*
X148152666Y-74145000D01*
%TO.C,Q1*%
X143448833Y-72901166D02*
X143415500Y-72967833D01*
X143348833Y-73034500D01*
X143248833Y-73134500D01*
X143215500Y-73201166D01*
X143215500Y-73267833D01*
X143382166Y-73234500D02*
X143348833Y-73301166D01*
X143282166Y-73367833D01*
X143148833Y-73401166D01*
X142915500Y-73401166D01*
X142782166Y-73367833D01*
X142715500Y-73301166D01*
X142682166Y-73234500D01*
X142682166Y-73101166D01*
X142715500Y-73034500D01*
X142782166Y-72967833D01*
X142915500Y-72934500D01*
X143148833Y-72934500D01*
X143282166Y-72967833D01*
X143348833Y-73034500D01*
X143382166Y-73101166D01*
X143382166Y-73234500D01*
X143382166Y-72267833D02*
X143382166Y-72667833D01*
X143382166Y-72467833D02*
X142682166Y-72467833D01*
X142782166Y-72534500D01*
X142848833Y-72601166D01*
X142882166Y-72667833D01*
%TO.C,J3*%
X140142166Y-85323333D02*
X140642166Y-85323333D01*
X140742166Y-85356666D01*
X140808833Y-85423333D01*
X140842166Y-85523333D01*
X140842166Y-85590000D01*
X140142166Y-85056666D02*
X140142166Y-84623333D01*
X140408833Y-84856666D01*
X140408833Y-84756666D01*
X140442166Y-84690000D01*
X140475500Y-84656666D01*
X140542166Y-84623333D01*
X140708833Y-84623333D01*
X140775500Y-84656666D01*
X140808833Y-84690000D01*
X140842166Y-84756666D01*
X140842166Y-84956666D01*
X140808833Y-85023333D01*
X140775500Y-85056666D01*
%TO.C,J2*%
X140523166Y-67860833D02*
X141023166Y-67860833D01*
X141123166Y-67894166D01*
X141189833Y-67960833D01*
X141223166Y-68060833D01*
X141223166Y-68127500D01*
X140589833Y-67560833D02*
X140556500Y-67527500D01*
X140523166Y-67460833D01*
X140523166Y-67294166D01*
X140556500Y-67227500D01*
X140589833Y-67194166D01*
X140656500Y-67160833D01*
X140723166Y-67160833D01*
X140823166Y-67194166D01*
X141223166Y-67594166D01*
X141223166Y-67160833D01*
%TO.C,D3*%
X170933333Y-116077166D02*
X170933333Y-115377166D01*
X171100000Y-115377166D01*
X171200000Y-115410500D01*
X171266666Y-115477166D01*
X171300000Y-115543833D01*
X171333333Y-115677166D01*
X171333333Y-115777166D01*
X171300000Y-115910500D01*
X171266666Y-115977166D01*
X171200000Y-116043833D01*
X171100000Y-116077166D01*
X170933333Y-116077166D01*
X171566666Y-115377166D02*
X172000000Y-115377166D01*
X171766666Y-115643833D01*
X171866666Y-115643833D01*
X171933333Y-115677166D01*
X171966666Y-115710500D01*
X172000000Y-115777166D01*
X172000000Y-115943833D01*
X171966666Y-116010500D01*
X171933333Y-116043833D01*
X171866666Y-116077166D01*
X171666666Y-116077166D01*
X171600000Y-116043833D01*
X171566666Y-116010500D01*
%TO.C,D2*%
X170742833Y-98932166D02*
X170742833Y-98232166D01*
X170909500Y-98232166D01*
X171009500Y-98265500D01*
X171076166Y-98332166D01*
X171109500Y-98398833D01*
X171142833Y-98532166D01*
X171142833Y-98632166D01*
X171109500Y-98765500D01*
X171076166Y-98832166D01*
X171009500Y-98898833D01*
X170909500Y-98932166D01*
X170742833Y-98932166D01*
X171409500Y-98298833D02*
X171442833Y-98265500D01*
X171509500Y-98232166D01*
X171676166Y-98232166D01*
X171742833Y-98265500D01*
X171776166Y-98298833D01*
X171809500Y-98365500D01*
X171809500Y-98432166D01*
X171776166Y-98532166D01*
X171376166Y-98932166D01*
X171809500Y-98932166D01*
%TO.C,D1*%
X143755333Y-73405166D02*
X143755333Y-72705166D01*
X143922000Y-72705166D01*
X144022000Y-72738500D01*
X144088666Y-72805166D01*
X144122000Y-72871833D01*
X144155333Y-73005166D01*
X144155333Y-73105166D01*
X144122000Y-73238500D01*
X144088666Y-73305166D01*
X144022000Y-73371833D01*
X143922000Y-73405166D01*
X143755333Y-73405166D01*
X144822000Y-73405166D02*
X144422000Y-73405166D01*
X144622000Y-73405166D02*
X144622000Y-72705166D01*
X144555333Y-72805166D01*
X144488666Y-72871833D01*
X144422000Y-72905166D01*
%TO.C,C7*%
X144839500Y-99430666D02*
X144872833Y-99464000D01*
X144906166Y-99564000D01*
X144906166Y-99630666D01*
X144872833Y-99730666D01*
X144806166Y-99797333D01*
X144739500Y-99830666D01*
X144606166Y-99864000D01*
X144506166Y-99864000D01*
X144372833Y-99830666D01*
X144306166Y-99797333D01*
X144239500Y-99730666D01*
X144206166Y-99630666D01*
X144206166Y-99564000D01*
X144239500Y-99464000D01*
X144272833Y-99430666D01*
X144206166Y-99197333D02*
X144206166Y-98730666D01*
X144906166Y-99030666D01*
%TO.C,C6*%
X143379000Y-99430666D02*
X143412333Y-99464000D01*
X143445666Y-99564000D01*
X143445666Y-99630666D01*
X143412333Y-99730666D01*
X143345666Y-99797333D01*
X143279000Y-99830666D01*
X143145666Y-99864000D01*
X143045666Y-99864000D01*
X142912333Y-99830666D01*
X142845666Y-99797333D01*
X142779000Y-99730666D01*
X142745666Y-99630666D01*
X142745666Y-99564000D01*
X142779000Y-99464000D01*
X142812333Y-99430666D01*
X142745666Y-98830666D02*
X142745666Y-98964000D01*
X142779000Y-99030666D01*
X142812333Y-99064000D01*
X142912333Y-99130666D01*
X143045666Y-99164000D01*
X143312333Y-99164000D01*
X143379000Y-99130666D01*
X143412333Y-99097333D01*
X143445666Y-99030666D01*
X143445666Y-98897333D01*
X143412333Y-98830666D01*
X143379000Y-98797333D01*
X143312333Y-98764000D01*
X143145666Y-98764000D01*
X143079000Y-98797333D01*
X143045666Y-98830666D01*
X143012333Y-98897333D01*
X143012333Y-99030666D01*
X143045666Y-99097333D01*
X143079000Y-99130666D01*
X143145666Y-99164000D01*
%TO.C,C5*%
X143315500Y-83555666D02*
X143348833Y-83589000D01*
X143382166Y-83689000D01*
X143382166Y-83755666D01*
X143348833Y-83855666D01*
X143282166Y-83922333D01*
X143215500Y-83955666D01*
X143082166Y-83989000D01*
X142982166Y-83989000D01*
X142848833Y-83955666D01*
X142782166Y-83922333D01*
X142715500Y-83855666D01*
X142682166Y-83755666D01*
X142682166Y-83689000D01*
X142715500Y-83589000D01*
X142748833Y-83555666D01*
X142682166Y-82922333D02*
X142682166Y-83255666D01*
X143015500Y-83289000D01*
X142982166Y-83255666D01*
X142948833Y-83189000D01*
X142948833Y-83022333D01*
X142982166Y-82955666D01*
X143015500Y-82922333D01*
X143082166Y-82889000D01*
X143248833Y-82889000D01*
X143315500Y-82922333D01*
X143348833Y-82955666D01*
X143382166Y-83022333D01*
X143382166Y-83189000D01*
X143348833Y-83255666D01*
X143315500Y-83289000D01*
%TO.C,C4*%
X147760500Y-99430666D02*
X147793833Y-99464000D01*
X147827166Y-99564000D01*
X147827166Y-99630666D01*
X147793833Y-99730666D01*
X147727166Y-99797333D01*
X147660500Y-99830666D01*
X147527166Y-99864000D01*
X147427166Y-99864000D01*
X147293833Y-99830666D01*
X147227166Y-99797333D01*
X147160500Y-99730666D01*
X147127166Y-99630666D01*
X147127166Y-99564000D01*
X147160500Y-99464000D01*
X147193833Y-99430666D01*
X147360500Y-98830666D02*
X147827166Y-98830666D01*
X147093833Y-98997333D02*
X147593833Y-99164000D01*
X147593833Y-98730666D01*
%TO.C,C3*%
X146300000Y-99430666D02*
X146333333Y-99464000D01*
X146366666Y-99564000D01*
X146366666Y-99630666D01*
X146333333Y-99730666D01*
X146266666Y-99797333D01*
X146200000Y-99830666D01*
X146066666Y-99864000D01*
X145966666Y-99864000D01*
X145833333Y-99830666D01*
X145766666Y-99797333D01*
X145700000Y-99730666D01*
X145666666Y-99630666D01*
X145666666Y-99564000D01*
X145700000Y-99464000D01*
X145733333Y-99430666D01*
X145666666Y-99197333D02*
X145666666Y-98764000D01*
X145933333Y-98997333D01*
X145933333Y-98897333D01*
X145966666Y-98830666D01*
X146000000Y-98797333D01*
X146066666Y-98764000D01*
X146233333Y-98764000D01*
X146300000Y-98797333D01*
X146333333Y-98830666D01*
X146366666Y-98897333D01*
X146366666Y-99097333D01*
X146333333Y-99164000D01*
X146300000Y-99197333D01*
%TO.C,C2*%
X147012833Y-81911000D02*
X146979500Y-81944333D01*
X146879500Y-81977666D01*
X146812833Y-81977666D01*
X146712833Y-81944333D01*
X146646166Y-81877666D01*
X146612833Y-81811000D01*
X146579500Y-81677666D01*
X146579500Y-81577666D01*
X146612833Y-81444333D01*
X146646166Y-81377666D01*
X146712833Y-81311000D01*
X146812833Y-81277666D01*
X146879500Y-81277666D01*
X146979500Y-81311000D01*
X147012833Y-81344333D01*
X147279500Y-81344333D02*
X147312833Y-81311000D01*
X147379500Y-81277666D01*
X147546166Y-81277666D01*
X147612833Y-81311000D01*
X147646166Y-81344333D01*
X147679500Y-81411000D01*
X147679500Y-81477666D01*
X147646166Y-81577666D01*
X147246166Y-81977666D01*
X147679500Y-81977666D01*
%TO.C,C1*%
X143125000Y-76316666D02*
X143158333Y-76350000D01*
X143191666Y-76450000D01*
X143191666Y-76516666D01*
X143158333Y-76616666D01*
X143091666Y-76683333D01*
X143025000Y-76716666D01*
X142891666Y-76750000D01*
X142791666Y-76750000D01*
X142658333Y-76716666D01*
X142591666Y-76683333D01*
X142525000Y-76616666D01*
X142491666Y-76516666D01*
X142491666Y-76450000D01*
X142525000Y-76350000D01*
X142558333Y-76316666D01*
X143191666Y-75650000D02*
X143191666Y-76050000D01*
X143191666Y-75850000D02*
X142491666Y-75850000D01*
X142591666Y-75916666D01*
X142658333Y-75983333D01*
X142691666Y-76050000D01*
%TD*%
M02*
