%TF.GenerationSoftware,KiCad,Pcbnew,(5.1.9)-1*%
%TF.CreationDate,2021-01-06T02:37:49+01:00*%
%TF.ProjectId,SerialBT-Flarm-2.0,53657269-616c-4425-942d-466c61726d2d,2.0*%
%TF.SameCoordinates,Original*%
%TF.FileFunction,Paste,Top*%
%TF.FilePolarity,Positive*%
%FSLAX46Y46*%
G04 Gerber Fmt 4.6, Leading zero omitted, Abs format (unit mm)*
G04 Created by KiCad (PCBNEW (5.1.9)-1) date 2021-01-06 02:37:49*
%MOMM*%
%LPD*%
G01*
G04 APERTURE LIST*
%ADD10R,1.000000X1.000000*%
%ADD11R,0.650000X1.060000*%
%ADD12R,0.450000X0.500000*%
%ADD13R,0.450000X0.400000*%
%ADD14R,0.700000X0.600000*%
G04 APERTURE END LIST*
D10*
%TO.C,U3*%
X169568000Y-66779000D03*
X168068000Y-66779000D03*
X166568000Y-66779000D03*
X165068000Y-66779000D03*
X163568000Y-66779000D03*
X162068000Y-66779000D03*
X160568000Y-66779000D03*
X159068000Y-66779000D03*
X157568000Y-66779000D03*
X156068000Y-66779000D03*
X154568000Y-66779000D03*
X153068000Y-66779000D03*
X151568000Y-66779000D03*
X149818000Y-68029000D03*
X149818000Y-69529000D03*
X149818000Y-71029000D03*
X149818000Y-72529000D03*
X149818000Y-74029000D03*
X149818000Y-75529000D03*
X149818000Y-77029000D03*
X149818000Y-78529000D03*
X151568000Y-79779000D03*
X153068000Y-79779000D03*
X154568000Y-79779000D03*
X156068000Y-79779000D03*
X157568000Y-79779000D03*
X159068000Y-79779000D03*
X160568000Y-79779000D03*
X162068000Y-79779000D03*
X163568000Y-79779000D03*
X165068000Y-79779000D03*
X166568000Y-79779000D03*
X168068000Y-79779000D03*
X169568000Y-79779000D03*
%TD*%
%TO.C,U5*%
X169568000Y-101069000D03*
X168068000Y-101069000D03*
X166568000Y-101069000D03*
X165068000Y-101069000D03*
X163568000Y-101069000D03*
X162068000Y-101069000D03*
X160568000Y-101069000D03*
X159068000Y-101069000D03*
X157568000Y-101069000D03*
X156068000Y-101069000D03*
X154568000Y-101069000D03*
X153068000Y-101069000D03*
X151568000Y-101069000D03*
X149818000Y-102319000D03*
X149818000Y-103819000D03*
X149818000Y-105319000D03*
X149818000Y-106819000D03*
X149818000Y-108319000D03*
X149818000Y-109819000D03*
X149818000Y-111319000D03*
X149818000Y-112819000D03*
X151568000Y-114069000D03*
X153068000Y-114069000D03*
X154568000Y-114069000D03*
X156068000Y-114069000D03*
X157568000Y-114069000D03*
X159068000Y-114069000D03*
X160568000Y-114069000D03*
X162068000Y-114069000D03*
X163568000Y-114069000D03*
X165068000Y-114069000D03*
X166568000Y-114069000D03*
X168068000Y-114069000D03*
X169568000Y-114069000D03*
%TD*%
%TO.C,U4*%
X169568000Y-83924000D03*
X168068000Y-83924000D03*
X166568000Y-83924000D03*
X165068000Y-83924000D03*
X163568000Y-83924000D03*
X162068000Y-83924000D03*
X160568000Y-83924000D03*
X159068000Y-83924000D03*
X157568000Y-83924000D03*
X156068000Y-83924000D03*
X154568000Y-83924000D03*
X153068000Y-83924000D03*
X151568000Y-83924000D03*
X149818000Y-85174000D03*
X149818000Y-86674000D03*
X149818000Y-88174000D03*
X149818000Y-89674000D03*
X149818000Y-91174000D03*
X149818000Y-92674000D03*
X149818000Y-94174000D03*
X149818000Y-95674000D03*
X151568000Y-96924000D03*
X153068000Y-96924000D03*
X154568000Y-96924000D03*
X156068000Y-96924000D03*
X157568000Y-96924000D03*
X159068000Y-96924000D03*
X160568000Y-96924000D03*
X162068000Y-96924000D03*
X163568000Y-96924000D03*
X165068000Y-96924000D03*
X166568000Y-96924000D03*
X168068000Y-96924000D03*
X169568000Y-96924000D03*
%TD*%
%TO.C,R10*%
G36*
G01*
X166287000Y-81745500D02*
X166287000Y-81195500D01*
G75*
G02*
X166487000Y-80995500I200000J0D01*
G01*
X166887000Y-80995500D01*
G75*
G02*
X167087000Y-81195500I0J-200000D01*
G01*
X167087000Y-81745500D01*
G75*
G02*
X166887000Y-81945500I-200000J0D01*
G01*
X166487000Y-81945500D01*
G75*
G02*
X166287000Y-81745500I0J200000D01*
G01*
G37*
G36*
G01*
X164637000Y-81745500D02*
X164637000Y-81195500D01*
G75*
G02*
X164837000Y-80995500I200000J0D01*
G01*
X165237000Y-80995500D01*
G75*
G02*
X165437000Y-81195500I0J-200000D01*
G01*
X165437000Y-81745500D01*
G75*
G02*
X165237000Y-81945500I-200000J0D01*
G01*
X164837000Y-81945500D01*
G75*
G02*
X164637000Y-81745500I0J200000D01*
G01*
G37*
%TD*%
%TO.C,R9*%
G36*
G01*
X156293000Y-81195500D02*
X156293000Y-81745500D01*
G75*
G02*
X156093000Y-81945500I-200000J0D01*
G01*
X155693000Y-81945500D01*
G75*
G02*
X155493000Y-81745500I0J200000D01*
G01*
X155493000Y-81195500D01*
G75*
G02*
X155693000Y-80995500I200000J0D01*
G01*
X156093000Y-80995500D01*
G75*
G02*
X156293000Y-81195500I0J-200000D01*
G01*
G37*
G36*
G01*
X157943000Y-81195500D02*
X157943000Y-81745500D01*
G75*
G02*
X157743000Y-81945500I-200000J0D01*
G01*
X157343000Y-81945500D01*
G75*
G02*
X157143000Y-81745500I0J200000D01*
G01*
X157143000Y-81195500D01*
G75*
G02*
X157343000Y-80995500I200000J0D01*
G01*
X157743000Y-80995500D01*
G75*
G02*
X157943000Y-81195500I0J-200000D01*
G01*
G37*
%TD*%
%TO.C,D4*%
G36*
G01*
X168623500Y-81214250D02*
X168623500Y-81726750D01*
G75*
G02*
X168404750Y-81945500I-218750J0D01*
G01*
X167967250Y-81945500D01*
G75*
G02*
X167748500Y-81726750I0J218750D01*
G01*
X167748500Y-81214250D01*
G75*
G02*
X167967250Y-80995500I218750J0D01*
G01*
X168404750Y-80995500D01*
G75*
G02*
X168623500Y-81214250I0J-218750D01*
G01*
G37*
G36*
G01*
X170198500Y-81214250D02*
X170198500Y-81726750D01*
G75*
G02*
X169979750Y-81945500I-218750J0D01*
G01*
X169542250Y-81945500D01*
G75*
G02*
X169323500Y-81726750I0J218750D01*
G01*
X169323500Y-81214250D01*
G75*
G02*
X169542250Y-80995500I218750J0D01*
G01*
X169979750Y-80995500D01*
G75*
G02*
X170198500Y-81214250I0J-218750D01*
G01*
G37*
%TD*%
%TO.C,U2*%
G36*
G01*
X143176500Y-88997500D02*
X142976500Y-88997500D01*
G75*
G02*
X142876500Y-88897500I0J100000D01*
G01*
X142876500Y-87622500D01*
G75*
G02*
X142976500Y-87522500I100000J0D01*
G01*
X143176500Y-87522500D01*
G75*
G02*
X143276500Y-87622500I0J-100000D01*
G01*
X143276500Y-88897500D01*
G75*
G02*
X143176500Y-88997500I-100000J0D01*
G01*
G37*
G36*
G01*
X143826500Y-88997500D02*
X143626500Y-88997500D01*
G75*
G02*
X143526500Y-88897500I0J100000D01*
G01*
X143526500Y-87622500D01*
G75*
G02*
X143626500Y-87522500I100000J0D01*
G01*
X143826500Y-87522500D01*
G75*
G02*
X143926500Y-87622500I0J-100000D01*
G01*
X143926500Y-88897500D01*
G75*
G02*
X143826500Y-88997500I-100000J0D01*
G01*
G37*
G36*
G01*
X144476500Y-88997500D02*
X144276500Y-88997500D01*
G75*
G02*
X144176500Y-88897500I0J100000D01*
G01*
X144176500Y-87622500D01*
G75*
G02*
X144276500Y-87522500I100000J0D01*
G01*
X144476500Y-87522500D01*
G75*
G02*
X144576500Y-87622500I0J-100000D01*
G01*
X144576500Y-88897500D01*
G75*
G02*
X144476500Y-88997500I-100000J0D01*
G01*
G37*
G36*
G01*
X145126500Y-88997500D02*
X144926500Y-88997500D01*
G75*
G02*
X144826500Y-88897500I0J100000D01*
G01*
X144826500Y-87622500D01*
G75*
G02*
X144926500Y-87522500I100000J0D01*
G01*
X145126500Y-87522500D01*
G75*
G02*
X145226500Y-87622500I0J-100000D01*
G01*
X145226500Y-88897500D01*
G75*
G02*
X145126500Y-88997500I-100000J0D01*
G01*
G37*
G36*
G01*
X145776500Y-88997500D02*
X145576500Y-88997500D01*
G75*
G02*
X145476500Y-88897500I0J100000D01*
G01*
X145476500Y-87622500D01*
G75*
G02*
X145576500Y-87522500I100000J0D01*
G01*
X145776500Y-87522500D01*
G75*
G02*
X145876500Y-87622500I0J-100000D01*
G01*
X145876500Y-88897500D01*
G75*
G02*
X145776500Y-88997500I-100000J0D01*
G01*
G37*
G36*
G01*
X146426500Y-88997500D02*
X146226500Y-88997500D01*
G75*
G02*
X146126500Y-88897500I0J100000D01*
G01*
X146126500Y-87622500D01*
G75*
G02*
X146226500Y-87522500I100000J0D01*
G01*
X146426500Y-87522500D01*
G75*
G02*
X146526500Y-87622500I0J-100000D01*
G01*
X146526500Y-88897500D01*
G75*
G02*
X146426500Y-88997500I-100000J0D01*
G01*
G37*
G36*
G01*
X147076500Y-88997500D02*
X146876500Y-88997500D01*
G75*
G02*
X146776500Y-88897500I0J100000D01*
G01*
X146776500Y-87622500D01*
G75*
G02*
X146876500Y-87522500I100000J0D01*
G01*
X147076500Y-87522500D01*
G75*
G02*
X147176500Y-87622500I0J-100000D01*
G01*
X147176500Y-88897500D01*
G75*
G02*
X147076500Y-88997500I-100000J0D01*
G01*
G37*
G36*
G01*
X147726500Y-88997500D02*
X147526500Y-88997500D01*
G75*
G02*
X147426500Y-88897500I0J100000D01*
G01*
X147426500Y-87622500D01*
G75*
G02*
X147526500Y-87522500I100000J0D01*
G01*
X147726500Y-87522500D01*
G75*
G02*
X147826500Y-87622500I0J-100000D01*
G01*
X147826500Y-88897500D01*
G75*
G02*
X147726500Y-88997500I-100000J0D01*
G01*
G37*
G36*
G01*
X147726500Y-94722500D02*
X147526500Y-94722500D01*
G75*
G02*
X147426500Y-94622500I0J100000D01*
G01*
X147426500Y-93347500D01*
G75*
G02*
X147526500Y-93247500I100000J0D01*
G01*
X147726500Y-93247500D01*
G75*
G02*
X147826500Y-93347500I0J-100000D01*
G01*
X147826500Y-94622500D01*
G75*
G02*
X147726500Y-94722500I-100000J0D01*
G01*
G37*
G36*
G01*
X147076500Y-94722500D02*
X146876500Y-94722500D01*
G75*
G02*
X146776500Y-94622500I0J100000D01*
G01*
X146776500Y-93347500D01*
G75*
G02*
X146876500Y-93247500I100000J0D01*
G01*
X147076500Y-93247500D01*
G75*
G02*
X147176500Y-93347500I0J-100000D01*
G01*
X147176500Y-94622500D01*
G75*
G02*
X147076500Y-94722500I-100000J0D01*
G01*
G37*
G36*
G01*
X146426500Y-94722500D02*
X146226500Y-94722500D01*
G75*
G02*
X146126500Y-94622500I0J100000D01*
G01*
X146126500Y-93347500D01*
G75*
G02*
X146226500Y-93247500I100000J0D01*
G01*
X146426500Y-93247500D01*
G75*
G02*
X146526500Y-93347500I0J-100000D01*
G01*
X146526500Y-94622500D01*
G75*
G02*
X146426500Y-94722500I-100000J0D01*
G01*
G37*
G36*
G01*
X145776500Y-94722500D02*
X145576500Y-94722500D01*
G75*
G02*
X145476500Y-94622500I0J100000D01*
G01*
X145476500Y-93347500D01*
G75*
G02*
X145576500Y-93247500I100000J0D01*
G01*
X145776500Y-93247500D01*
G75*
G02*
X145876500Y-93347500I0J-100000D01*
G01*
X145876500Y-94622500D01*
G75*
G02*
X145776500Y-94722500I-100000J0D01*
G01*
G37*
G36*
G01*
X145126500Y-94722500D02*
X144926500Y-94722500D01*
G75*
G02*
X144826500Y-94622500I0J100000D01*
G01*
X144826500Y-93347500D01*
G75*
G02*
X144926500Y-93247500I100000J0D01*
G01*
X145126500Y-93247500D01*
G75*
G02*
X145226500Y-93347500I0J-100000D01*
G01*
X145226500Y-94622500D01*
G75*
G02*
X145126500Y-94722500I-100000J0D01*
G01*
G37*
G36*
G01*
X144476500Y-94722500D02*
X144276500Y-94722500D01*
G75*
G02*
X144176500Y-94622500I0J100000D01*
G01*
X144176500Y-93347500D01*
G75*
G02*
X144276500Y-93247500I100000J0D01*
G01*
X144476500Y-93247500D01*
G75*
G02*
X144576500Y-93347500I0J-100000D01*
G01*
X144576500Y-94622500D01*
G75*
G02*
X144476500Y-94722500I-100000J0D01*
G01*
G37*
G36*
G01*
X143826500Y-94722500D02*
X143626500Y-94722500D01*
G75*
G02*
X143526500Y-94622500I0J100000D01*
G01*
X143526500Y-93347500D01*
G75*
G02*
X143626500Y-93247500I100000J0D01*
G01*
X143826500Y-93247500D01*
G75*
G02*
X143926500Y-93347500I0J-100000D01*
G01*
X143926500Y-94622500D01*
G75*
G02*
X143826500Y-94722500I-100000J0D01*
G01*
G37*
G36*
G01*
X143176500Y-94722500D02*
X142976500Y-94722500D01*
G75*
G02*
X142876500Y-94622500I0J100000D01*
G01*
X142876500Y-93347500D01*
G75*
G02*
X142976500Y-93247500I100000J0D01*
G01*
X143176500Y-93247500D01*
G75*
G02*
X143276500Y-93347500I0J-100000D01*
G01*
X143276500Y-94622500D01*
G75*
G02*
X143176500Y-94722500I-100000J0D01*
G01*
G37*
%TD*%
D11*
%TO.C,U1*%
X145603000Y-80030500D03*
X143703000Y-80030500D03*
X143703000Y-77830500D03*
X144653000Y-77830500D03*
X145603000Y-77830500D03*
%TD*%
%TO.C,R8*%
G36*
G01*
X165437000Y-115485500D02*
X165437000Y-116035500D01*
G75*
G02*
X165237000Y-116235500I-200000J0D01*
G01*
X164837000Y-116235500D01*
G75*
G02*
X164637000Y-116035500I0J200000D01*
G01*
X164637000Y-115485500D01*
G75*
G02*
X164837000Y-115285500I200000J0D01*
G01*
X165237000Y-115285500D01*
G75*
G02*
X165437000Y-115485500I0J-200000D01*
G01*
G37*
G36*
G01*
X167087000Y-115485500D02*
X167087000Y-116035500D01*
G75*
G02*
X166887000Y-116235500I-200000J0D01*
G01*
X166487000Y-116235500D01*
G75*
G02*
X166287000Y-116035500I0J200000D01*
G01*
X166287000Y-115485500D01*
G75*
G02*
X166487000Y-115285500I200000J0D01*
G01*
X166887000Y-115285500D01*
G75*
G02*
X167087000Y-115485500I0J-200000D01*
G01*
G37*
%TD*%
%TO.C,R7*%
G36*
G01*
X156293000Y-115422000D02*
X156293000Y-115972000D01*
G75*
G02*
X156093000Y-116172000I-200000J0D01*
G01*
X155693000Y-116172000D01*
G75*
G02*
X155493000Y-115972000I0J200000D01*
G01*
X155493000Y-115422000D01*
G75*
G02*
X155693000Y-115222000I200000J0D01*
G01*
X156093000Y-115222000D01*
G75*
G02*
X156293000Y-115422000I0J-200000D01*
G01*
G37*
G36*
G01*
X157943000Y-115422000D02*
X157943000Y-115972000D01*
G75*
G02*
X157743000Y-116172000I-200000J0D01*
G01*
X157343000Y-116172000D01*
G75*
G02*
X157143000Y-115972000I0J200000D01*
G01*
X157143000Y-115422000D01*
G75*
G02*
X157343000Y-115222000I200000J0D01*
G01*
X157743000Y-115222000D01*
G75*
G02*
X157943000Y-115422000I0J-200000D01*
G01*
G37*
%TD*%
%TO.C,R6*%
G36*
G01*
X166287000Y-98890500D02*
X166287000Y-98340500D01*
G75*
G02*
X166487000Y-98140500I200000J0D01*
G01*
X166887000Y-98140500D01*
G75*
G02*
X167087000Y-98340500I0J-200000D01*
G01*
X167087000Y-98890500D01*
G75*
G02*
X166887000Y-99090500I-200000J0D01*
G01*
X166487000Y-99090500D01*
G75*
G02*
X166287000Y-98890500I0J200000D01*
G01*
G37*
G36*
G01*
X164637000Y-98890500D02*
X164637000Y-98340500D01*
G75*
G02*
X164837000Y-98140500I200000J0D01*
G01*
X165237000Y-98140500D01*
G75*
G02*
X165437000Y-98340500I0J-200000D01*
G01*
X165437000Y-98890500D01*
G75*
G02*
X165237000Y-99090500I-200000J0D01*
G01*
X164837000Y-99090500D01*
G75*
G02*
X164637000Y-98890500I0J200000D01*
G01*
G37*
%TD*%
%TO.C,R5*%
G36*
G01*
X156293000Y-98340500D02*
X156293000Y-98890500D01*
G75*
G02*
X156093000Y-99090500I-200000J0D01*
G01*
X155693000Y-99090500D01*
G75*
G02*
X155493000Y-98890500I0J200000D01*
G01*
X155493000Y-98340500D01*
G75*
G02*
X155693000Y-98140500I200000J0D01*
G01*
X156093000Y-98140500D01*
G75*
G02*
X156293000Y-98340500I0J-200000D01*
G01*
G37*
G36*
G01*
X157943000Y-98340500D02*
X157943000Y-98890500D01*
G75*
G02*
X157743000Y-99090500I-200000J0D01*
G01*
X157343000Y-99090500D01*
G75*
G02*
X157143000Y-98890500I0J200000D01*
G01*
X157143000Y-98340500D01*
G75*
G02*
X157343000Y-98140500I200000J0D01*
G01*
X157743000Y-98140500D01*
G75*
G02*
X157943000Y-98340500I0J-200000D01*
G01*
G37*
%TD*%
%TO.C,R4*%
G36*
G01*
X147108500Y-86150000D02*
X147658500Y-86150000D01*
G75*
G02*
X147858500Y-86350000I0J-200000D01*
G01*
X147858500Y-86750000D01*
G75*
G02*
X147658500Y-86950000I-200000J0D01*
G01*
X147108500Y-86950000D01*
G75*
G02*
X146908500Y-86750000I0J200000D01*
G01*
X146908500Y-86350000D01*
G75*
G02*
X147108500Y-86150000I200000J0D01*
G01*
G37*
G36*
G01*
X147108500Y-84500000D02*
X147658500Y-84500000D01*
G75*
G02*
X147858500Y-84700000I0J-200000D01*
G01*
X147858500Y-85100000D01*
G75*
G02*
X147658500Y-85300000I-200000J0D01*
G01*
X147108500Y-85300000D01*
G75*
G02*
X146908500Y-85100000I0J200000D01*
G01*
X146908500Y-84700000D01*
G75*
G02*
X147108500Y-84500000I200000J0D01*
G01*
G37*
%TD*%
%TO.C,R3*%
G36*
G01*
X145394000Y-86150000D02*
X145944000Y-86150000D01*
G75*
G02*
X146144000Y-86350000I0J-200000D01*
G01*
X146144000Y-86750000D01*
G75*
G02*
X145944000Y-86950000I-200000J0D01*
G01*
X145394000Y-86950000D01*
G75*
G02*
X145194000Y-86750000I0J200000D01*
G01*
X145194000Y-86350000D01*
G75*
G02*
X145394000Y-86150000I200000J0D01*
G01*
G37*
G36*
G01*
X145394000Y-84500000D02*
X145944000Y-84500000D01*
G75*
G02*
X146144000Y-84700000I0J-200000D01*
G01*
X146144000Y-85100000D01*
G75*
G02*
X145944000Y-85300000I-200000J0D01*
G01*
X145394000Y-85300000D01*
G75*
G02*
X145194000Y-85100000I0J200000D01*
G01*
X145194000Y-84700000D01*
G75*
G02*
X145394000Y-84500000I200000J0D01*
G01*
G37*
%TD*%
%TO.C,R2*%
G36*
G01*
X146854500Y-77767500D02*
X147404500Y-77767500D01*
G75*
G02*
X147604500Y-77967500I0J-200000D01*
G01*
X147604500Y-78367500D01*
G75*
G02*
X147404500Y-78567500I-200000J0D01*
G01*
X146854500Y-78567500D01*
G75*
G02*
X146654500Y-78367500I0J200000D01*
G01*
X146654500Y-77967500D01*
G75*
G02*
X146854500Y-77767500I200000J0D01*
G01*
G37*
G36*
G01*
X146854500Y-76117500D02*
X147404500Y-76117500D01*
G75*
G02*
X147604500Y-76317500I0J-200000D01*
G01*
X147604500Y-76717500D01*
G75*
G02*
X147404500Y-76917500I-200000J0D01*
G01*
X146854500Y-76917500D01*
G75*
G02*
X146654500Y-76717500I0J200000D01*
G01*
X146654500Y-76317500D01*
G75*
G02*
X146854500Y-76117500I200000J0D01*
G01*
G37*
%TD*%
%TO.C,R1*%
G36*
G01*
X146854500Y-74720000D02*
X147404500Y-74720000D01*
G75*
G02*
X147604500Y-74920000I0J-200000D01*
G01*
X147604500Y-75320000D01*
G75*
G02*
X147404500Y-75520000I-200000J0D01*
G01*
X146854500Y-75520000D01*
G75*
G02*
X146654500Y-75320000I0J200000D01*
G01*
X146654500Y-74920000D01*
G75*
G02*
X146854500Y-74720000I200000J0D01*
G01*
G37*
G36*
G01*
X146854500Y-73070000D02*
X147404500Y-73070000D01*
G75*
G02*
X147604500Y-73270000I0J-200000D01*
G01*
X147604500Y-73670000D01*
G75*
G02*
X147404500Y-73870000I-200000J0D01*
G01*
X146854500Y-73870000D01*
G75*
G02*
X146654500Y-73670000I0J200000D01*
G01*
X146654500Y-73270000D01*
G75*
G02*
X146854500Y-73070000I200000J0D01*
G01*
G37*
%TD*%
D12*
%TO.C,Q1*%
X144339000Y-74485500D03*
D13*
X143189000Y-74885500D03*
X143189000Y-74085500D03*
%TD*%
%TO.C,D3*%
G36*
G01*
X168623500Y-115504250D02*
X168623500Y-116016750D01*
G75*
G02*
X168404750Y-116235500I-218750J0D01*
G01*
X167967250Y-116235500D01*
G75*
G02*
X167748500Y-116016750I0J218750D01*
G01*
X167748500Y-115504250D01*
G75*
G02*
X167967250Y-115285500I218750J0D01*
G01*
X168404750Y-115285500D01*
G75*
G02*
X168623500Y-115504250I0J-218750D01*
G01*
G37*
G36*
G01*
X170198500Y-115504250D02*
X170198500Y-116016750D01*
G75*
G02*
X169979750Y-116235500I-218750J0D01*
G01*
X169542250Y-116235500D01*
G75*
G02*
X169323500Y-116016750I0J218750D01*
G01*
X169323500Y-115504250D01*
G75*
G02*
X169542250Y-115285500I218750J0D01*
G01*
X169979750Y-115285500D01*
G75*
G02*
X170198500Y-115504250I0J-218750D01*
G01*
G37*
%TD*%
%TO.C,D2*%
G36*
G01*
X168623500Y-98359250D02*
X168623500Y-98871750D01*
G75*
G02*
X168404750Y-99090500I-218750J0D01*
G01*
X167967250Y-99090500D01*
G75*
G02*
X167748500Y-98871750I0J218750D01*
G01*
X167748500Y-98359250D01*
G75*
G02*
X167967250Y-98140500I218750J0D01*
G01*
X168404750Y-98140500D01*
G75*
G02*
X168623500Y-98359250I0J-218750D01*
G01*
G37*
G36*
G01*
X170198500Y-98359250D02*
X170198500Y-98871750D01*
G75*
G02*
X169979750Y-99090500I-218750J0D01*
G01*
X169542250Y-99090500D01*
G75*
G02*
X169323500Y-98871750I0J218750D01*
G01*
X169323500Y-98359250D01*
G75*
G02*
X169542250Y-98140500I218750J0D01*
G01*
X169979750Y-98140500D01*
G75*
G02*
X170198500Y-98359250I0J-218750D01*
G01*
G37*
%TD*%
D14*
%TO.C,D1*%
X145605500Y-74868000D03*
X145605500Y-73468000D03*
%TD*%
%TO.C,C7*%
G36*
G01*
X144339500Y-96845000D02*
X144839500Y-96845000D01*
G75*
G02*
X145064500Y-97070000I0J-225000D01*
G01*
X145064500Y-97520000D01*
G75*
G02*
X144839500Y-97745000I-225000J0D01*
G01*
X144339500Y-97745000D01*
G75*
G02*
X144114500Y-97520000I0J225000D01*
G01*
X144114500Y-97070000D01*
G75*
G02*
X144339500Y-96845000I225000J0D01*
G01*
G37*
G36*
G01*
X144339500Y-95295000D02*
X144839500Y-95295000D01*
G75*
G02*
X145064500Y-95520000I0J-225000D01*
G01*
X145064500Y-95970000D01*
G75*
G02*
X144839500Y-96195000I-225000J0D01*
G01*
X144339500Y-96195000D01*
G75*
G02*
X144114500Y-95970000I0J225000D01*
G01*
X144114500Y-95520000D01*
G75*
G02*
X144339500Y-95295000I225000J0D01*
G01*
G37*
%TD*%
%TO.C,C6*%
G36*
G01*
X142879000Y-96845000D02*
X143379000Y-96845000D01*
G75*
G02*
X143604000Y-97070000I0J-225000D01*
G01*
X143604000Y-97520000D01*
G75*
G02*
X143379000Y-97745000I-225000J0D01*
G01*
X142879000Y-97745000D01*
G75*
G02*
X142654000Y-97520000I0J225000D01*
G01*
X142654000Y-97070000D01*
G75*
G02*
X142879000Y-96845000I225000J0D01*
G01*
G37*
G36*
G01*
X142879000Y-95295000D02*
X143379000Y-95295000D01*
G75*
G02*
X143604000Y-95520000I0J-225000D01*
G01*
X143604000Y-95970000D01*
G75*
G02*
X143379000Y-96195000I-225000J0D01*
G01*
X142879000Y-96195000D01*
G75*
G02*
X142654000Y-95970000I0J225000D01*
G01*
X142654000Y-95520000D01*
G75*
G02*
X142879000Y-95295000I225000J0D01*
G01*
G37*
%TD*%
%TO.C,C5*%
G36*
G01*
X143315500Y-85400000D02*
X142815500Y-85400000D01*
G75*
G02*
X142590500Y-85175000I0J225000D01*
G01*
X142590500Y-84725000D01*
G75*
G02*
X142815500Y-84500000I225000J0D01*
G01*
X143315500Y-84500000D01*
G75*
G02*
X143540500Y-84725000I0J-225000D01*
G01*
X143540500Y-85175000D01*
G75*
G02*
X143315500Y-85400000I-225000J0D01*
G01*
G37*
G36*
G01*
X143315500Y-86950000D02*
X142815500Y-86950000D01*
G75*
G02*
X142590500Y-86725000I0J225000D01*
G01*
X142590500Y-86275000D01*
G75*
G02*
X142815500Y-86050000I225000J0D01*
G01*
X143315500Y-86050000D01*
G75*
G02*
X143540500Y-86275000I0J-225000D01*
G01*
X143540500Y-86725000D01*
G75*
G02*
X143315500Y-86950000I-225000J0D01*
G01*
G37*
%TD*%
%TO.C,C4*%
G36*
G01*
X147260500Y-96845000D02*
X147760500Y-96845000D01*
G75*
G02*
X147985500Y-97070000I0J-225000D01*
G01*
X147985500Y-97520000D01*
G75*
G02*
X147760500Y-97745000I-225000J0D01*
G01*
X147260500Y-97745000D01*
G75*
G02*
X147035500Y-97520000I0J225000D01*
G01*
X147035500Y-97070000D01*
G75*
G02*
X147260500Y-96845000I225000J0D01*
G01*
G37*
G36*
G01*
X147260500Y-95295000D02*
X147760500Y-95295000D01*
G75*
G02*
X147985500Y-95520000I0J-225000D01*
G01*
X147985500Y-95970000D01*
G75*
G02*
X147760500Y-96195000I-225000J0D01*
G01*
X147260500Y-96195000D01*
G75*
G02*
X147035500Y-95970000I0J225000D01*
G01*
X147035500Y-95520000D01*
G75*
G02*
X147260500Y-95295000I225000J0D01*
G01*
G37*
%TD*%
%TO.C,C3*%
G36*
G01*
X145800000Y-96845000D02*
X146300000Y-96845000D01*
G75*
G02*
X146525000Y-97070000I0J-225000D01*
G01*
X146525000Y-97520000D01*
G75*
G02*
X146300000Y-97745000I-225000J0D01*
G01*
X145800000Y-97745000D01*
G75*
G02*
X145575000Y-97520000I0J225000D01*
G01*
X145575000Y-97070000D01*
G75*
G02*
X145800000Y-96845000I225000J0D01*
G01*
G37*
G36*
G01*
X145800000Y-95295000D02*
X146300000Y-95295000D01*
G75*
G02*
X146525000Y-95520000I0J-225000D01*
G01*
X146525000Y-95970000D01*
G75*
G02*
X146300000Y-96195000I-225000J0D01*
G01*
X145800000Y-96195000D01*
G75*
G02*
X145575000Y-95970000I0J225000D01*
G01*
X145575000Y-95520000D01*
G75*
G02*
X145800000Y-95295000I225000J0D01*
G01*
G37*
%TD*%
%TO.C,C2*%
G36*
G01*
X144645500Y-81411000D02*
X144645500Y-81911000D01*
G75*
G02*
X144420500Y-82136000I-225000J0D01*
G01*
X143970500Y-82136000D01*
G75*
G02*
X143745500Y-81911000I0J225000D01*
G01*
X143745500Y-81411000D01*
G75*
G02*
X143970500Y-81186000I225000J0D01*
G01*
X144420500Y-81186000D01*
G75*
G02*
X144645500Y-81411000I0J-225000D01*
G01*
G37*
G36*
G01*
X146195500Y-81411000D02*
X146195500Y-81911000D01*
G75*
G02*
X145970500Y-82136000I-225000J0D01*
G01*
X145520500Y-82136000D01*
G75*
G02*
X145295500Y-81911000I0J225000D01*
G01*
X145295500Y-81411000D01*
G75*
G02*
X145520500Y-81186000I225000J0D01*
G01*
X145970500Y-81186000D01*
G75*
G02*
X146195500Y-81411000I0J-225000D01*
G01*
G37*
%TD*%
%TO.C,C1*%
G36*
G01*
X144518500Y-75950000D02*
X144518500Y-76450000D01*
G75*
G02*
X144293500Y-76675000I-225000J0D01*
G01*
X143843500Y-76675000D01*
G75*
G02*
X143618500Y-76450000I0J225000D01*
G01*
X143618500Y-75950000D01*
G75*
G02*
X143843500Y-75725000I225000J0D01*
G01*
X144293500Y-75725000D01*
G75*
G02*
X144518500Y-75950000I0J-225000D01*
G01*
G37*
G36*
G01*
X146068500Y-75950000D02*
X146068500Y-76450000D01*
G75*
G02*
X145843500Y-76675000I-225000J0D01*
G01*
X145393500Y-76675000D01*
G75*
G02*
X145168500Y-76450000I0J225000D01*
G01*
X145168500Y-75950000D01*
G75*
G02*
X145393500Y-75725000I225000J0D01*
G01*
X145843500Y-75725000D01*
G75*
G02*
X146068500Y-75950000I0J-225000D01*
G01*
G37*
%TD*%
M02*
